<svg width="27" height="26" viewBox="0 0 27 26" fill="none" xmlns="http://www.w3.org/2000/svg">
<path opacity="0.3" d="M13.7264 21.5934C18.4303 21.5934 22.2436 17.7801 22.2436 13.0762C22.2436 8.37229 18.4303 4.55902 13.7264 4.55902C9.0225 4.55902 5.20923 8.37229 5.20923 13.0762C5.20923 17.7801 9.0225 21.5934 13.7264 21.5934Z" fill="#72C770"/>
<path d="M13.7265 2.42975C7.83899 2.42975 3.08002 7.18872 3.08002 13.0762C3.08002 18.9637 7.83899 23.7227 13.7265 23.7227C19.614 23.7227 24.373 18.9637 24.373 13.0762C24.373 7.18872 19.614 2.42975 13.7265 2.42975ZM13.7265 21.5934C9.02075 21.5934 5.20931 17.782 5.20931 13.0762C5.20931 8.37048 9.02075 4.55904 13.7265 4.55904C18.4322 4.55904 22.2437 8.37048 22.2437 13.0762C22.2437 17.782 18.4322 21.5934 13.7265 21.5934Z" fill="#72C770"/>
</svg>
