<svg width="36" height="36" viewBox="0 0 36 36" fill="none" xmlns="http://www.w3.org/2000/svg">
<path d="M11.0872 5.96258L9.00417 3.87479C5.50114 6.53955 3.19229 10.6494 2.98282 15.3159L5.89948 15.3192C6.00489 13.4699 6.52609 11.6681 7.42429 10.0481C8.32249 8.42815 9.57453 7.03164 11.0872 5.96258ZM29.1453 15.3456L32.062 15.349C31.8485 10.682 29.549 6.56692 26.0667 3.8942L23.9935 5.97726C25.4972 7.05503 26.7405 8.45593 27.632 10.0771C28.5235 11.6982 29.0406 13.4985 29.1453 15.3456ZM26.2716 16.0715C26.2767 11.5944 23.8893 7.84381 19.7195 6.8474L19.7207 5.85573C19.7221 4.64532 18.7461 3.66712 17.5357 3.66575C16.3253 3.66437 15.3471 4.64034 15.3457 5.85076L15.3446 6.84242C11.158 7.82932 8.77668 11.56 8.77157 16.0516L8.76327 23.3433L5.84329 26.2566L5.84163 27.715L29.1749 27.7415L29.1766 26.2832L26.2633 23.3632L26.2716 16.0715ZM17.5033 32.1032C17.7075 32.1035 17.8971 32.0891 18.0867 32.0456C19.0349 31.8425 19.8085 31.2017 20.1887 30.3271C20.3349 29.9773 20.4082 29.5982 20.4087 29.1899L14.5754 29.1832C14.5881 30.7874 15.8846 32.1014 17.5033 32.1032Z" fill="#333333"/>
</svg>
