<svg width="35" height="35" viewBox="0 0 35 35" fill="none" xmlns="http://www.w3.org/2000/svg">
<path opacity="0.3" d="M17.5 29.1666C23.9433 29.1666 29.1666 23.9433 29.1666 17.5C29.1666 11.0567 23.9433 5.83331 17.5 5.83331C11.0567 5.83331 5.83331 11.0567 5.83331 17.5C5.83331 23.9433 11.0567 29.1666 17.5 29.1666Z" fill="#7A4CDC"/>
<path d="M17.5 2.91669C9.43544 2.91669 2.91669 9.43544 2.91669 17.5C2.91669 25.5646 9.43544 32.0834 17.5 32.0834C25.5646 32.0834 32.0834 25.5646 32.0834 17.5C32.0834 9.43544 25.5646 2.91669 17.5 2.91669ZM17.5 29.1667C11.0542 29.1667 5.83335 23.9459 5.83335 17.5C5.83335 11.0542 11.0542 5.83335 17.5 5.83335C23.9459 5.83335 29.1667 11.0542 29.1667 17.5C29.1667 23.9459 23.9459 29.1667 17.5 29.1667Z" fill="#7A4CDC"/>
</svg>
