<svg width="78" height="78" viewBox="0 0 78 78" fill="none" xmlns="http://www.w3.org/2000/svg">
<rect width="78" height="78" rx="29" fill="#22A5EF"/>
<g clip-path="url(#clip0_2_136)">
<path d="M66.865 15.5726C67.0014 15.2319 67.0348 14.8586 66.9611 14.4991C66.8873 14.1395 66.7097 13.8096 66.4501 13.55C66.1906 13.2905 65.8606 13.1129 65.5011 13.0391C65.1415 12.9653 64.7683 12.9987 64.4275 13.1351L9.87628 34.9564C9.39586 35.1487 8.97781 35.4698 8.66814 35.8844C8.35847 36.299 8.16918 36.7909 8.12111 37.3062C8.07304 37.8214 8.16805 38.3399 8.39567 38.8046C8.6233 39.2694 8.97473 39.6623 9.41128 39.9401L28.1425 51.8576L33.8838 60.8801C34.1549 61.2895 34.5759 61.5762 35.0561 61.6786C35.5364 61.7809 36.0377 61.6908 36.4522 61.4276C36.8667 61.1643 37.1614 60.7489 37.273 60.2707C37.3845 59.7925 37.304 59.2896 37.0488 58.8701L31.8888 50.7626L59.9913 22.6601L52.885 40.4276C52.7874 40.6572 52.7366 40.904 52.7355 41.1535C52.7345 41.403 52.7833 41.6502 52.879 41.8807C52.9747 42.1111 53.1155 42.3201 53.293 42.4954C53.4705 42.6707 53.6813 42.8088 53.9129 42.9017C54.1445 42.9945 54.3923 43.0402 54.6417 43.036C54.8912 43.0319 55.1373 42.978 55.3657 42.8775C55.5941 42.777 55.8001 42.6319 55.9717 42.4508C56.1433 42.2697 56.277 42.0561 56.365 41.8226L66.865 15.5726ZM57.34 20.0089L29.2375 48.1114L12.9663 37.7576L57.34 20.0089Z" fill="white"/>
<path d="M67 59.875C67 63.356 65.6172 66.6944 63.1558 69.1558C60.6944 71.6172 57.356 73 53.875 73C50.394 73 47.0556 71.6172 44.5942 69.1558C42.1328 66.6944 40.75 63.356 40.75 59.875C40.75 56.394 42.1328 53.0556 44.5942 50.5942C47.0556 48.1328 50.394 46.75 53.875 46.75C57.356 46.75 60.6944 48.1328 63.1558 50.5942C65.6172 53.0556 67 56.394 67 59.875ZM53.875 52.375C53.3777 52.375 52.9008 52.5725 52.5492 52.9242C52.1975 53.2758 52 53.7527 52 54.25V58H48.25C47.7527 58 47.2758 58.1975 46.9242 58.5492C46.5725 58.9008 46.375 59.3777 46.375 59.875C46.375 60.3723 46.5725 60.8492 46.9242 61.2008C47.2758 61.5525 47.7527 61.75 48.25 61.75H52V65.5C52 65.9973 52.1975 66.4742 52.5492 66.8258C52.9008 67.1775 53.3777 67.375 53.875 67.375C54.3723 67.375 54.8492 67.1775 55.2008 66.8258C55.5525 66.4742 55.75 65.9973 55.75 65.5V61.75H59.5C59.9973 61.75 60.4742 61.5525 60.8258 61.2008C61.1775 60.8492 61.375 60.3723 61.375 59.875C61.375 59.3777 61.1775 58.9008 60.8258 58.5492C60.4742 58.1975 59.9973 58 59.5 58H55.75V54.25C55.75 53.7527 55.5525 53.2758 55.2008 52.9242C54.8492 52.5725 54.3723 52.375 53.875 52.375Z" fill="white"/>
</g>
<defs>
<clipPath id="clip0_2_136">
<rect width="60" height="60" fill="white" transform="translate(7 13)"/>
</clipPath>
</defs>
</svg>
