<svg width="31" height="31" viewBox="0 0 31 31" fill="none" xmlns="http://www.w3.org/2000/svg">
<path d="M15.5689 25.1751C15.8916 25.1751 16.2011 25.0469 16.4293 24.8188C16.6575 24.5906 16.7857 24.2811 16.7857 23.9584C16.7857 23.6357 16.6575 23.3262 16.4293 23.098C16.2011 22.8699 15.8916 22.7417 15.5689 22.7417C15.2462 22.7417 14.9367 22.8699 14.7085 23.098C14.4804 23.3262 14.3522 23.6357 14.3522 23.9584C14.3522 24.2811 14.4804 24.5906 14.7085 24.8188C14.9367 25.0469 15.2462 25.1751 15.5689 25.1751ZM15.5689 16.658C15.8916 16.658 16.2011 16.5298 16.4293 16.3016C16.6575 16.0734 16.7857 15.7639 16.7857 15.4412C16.7857 15.1185 16.6575 14.809 16.4293 14.5809C16.2011 14.3527 15.8916 14.2245 15.5689 14.2245C15.2462 14.2245 14.9367 14.3527 14.7085 14.5809C14.4804 14.809 14.3522 15.1185 14.3522 15.4412C14.3522 15.7639 14.4804 16.0734 14.7085 16.3016C14.9367 16.5298 15.2462 16.658 15.5689 16.658ZM15.5689 8.14079C15.8916 8.14079 16.2011 8.0126 16.4293 7.78442C16.6575 7.55624 16.7857 7.24675 16.7857 6.92405C16.7857 6.60135 16.6575 6.29187 16.4293 6.06369C16.2011 5.8355 15.8916 5.70731 15.5689 5.70731C15.2462 5.70731 14.9367 5.8355 14.7085 6.06369C14.4804 6.29187 14.3522 6.60135 14.3522 6.92405C14.3522 7.24675 14.4804 7.55624 14.7085 7.78442C14.9367 8.0126 15.2462 8.14079 15.5689 8.14079Z" fill="#333333" stroke="#333333" stroke-width="2" stroke-linecap="round" stroke-linejoin="round"/>
</svg>
